<?xml version="1.0" standalone="no"?>
<!DOCTYPE svg PUBLIC "-//W3C//DTD SVG 20010904//EN"
        "http://www.w3.org/TR/2001/REC-SVG-20010904/DTD/svg10.dtd">
<svg version="1.0" xmlns="http://www.w3.org/2000/svg"
     width="260.000000pt" height="260.000000pt" viewBox="0 0 260.000000 260.000000"
     preserveAspectRatio="xMidYMid meet">
    <metadata>
        Created by potrace 1.11, written by Peter Selinger 2001-2013
    </metadata>
    <g transform="translate(0.000000,260.000000) scale(0.100000,-0.100000)"
       fill="#000000" stroke="none">
        <path d="M977 2058 c-109 -288 -202 -532 -207 -543 -6 -11 -39 -99 -75 -195
-37 -96 -77 -202 -89 -235 -13 -33 -85 -222 -161 -420 -75 -198 -141 -369
-145 -380 -5 -11 -27 -67 -49 -125 -22 -58 -42 -113 -46 -122 -7 -17 5 -18
167 -18 l175 0 36 98 c19 53 59 162 87 242 29 80 67 186 85 235 l34 90 536 0
537 0 121 -333 121 -332 174 0 c162 0 174 1 167 18 -3 9 -61 159 -127 332 -66
173 -126 325 -134 338 -8 12 -11 21 -7 21 4 -1 16 1 25 4 46 18 54 20 71 24
10 2 28 8 40 15 21 11 27 14 60 21 6 1 18 6 24 10 7 5 23 10 35 12 42 8 42 21
2 127 -21 57 -39 106 -40 111 -1 4 -3 9 -4 12 -1 3 -3 9 -4 15 -4 31 -27 28
-166 -20 -79 -28 -147 -47 -150 -43 -11 12 -80 183 -80 197 0 6 -24 77 -54
156 l-55 145 116 42 c64 24 123 44 132 45 45 8 44 23 -8 160 -31 84 -54 132
-63 131 -24 -3 -52 -12 -123 -38 -38 -14 -77 -27 -85 -29 -8 -3 -28 -9 -44
-15 -16 -7 -31 -10 -33 -7 -3 2 -71 177 -152 388 l-147 383 -149 3 -150 2
-198 -522z m413 -83 c34 -94 65 -179 70 -190 7 -17 96 -259 256 -703 19 -52
36 -98 39 -103 4 -5 -2 -9 -12 -10 -24 -1 -802 -1 -829 0 -20 1 -15 20 81 284
57 155 150 413 208 572 123 339 119 327 123 323 2 -2 31 -80 64 -173z"/>
    </g>
</svg>
